<svg width="18" height="16" viewBox="0 0 18 16" fill="none" xmlns="http://www.w3.org/2000/svg">
<path d="M0.5 0C0.225 0 0 0.225 0 0.5C0 0.775 0.225 1 0.5 1H1.68438C1.92188 1 2.12812 1.16562 2.175 1.4L4.01562 10.4C4.20625 11.3312 5.025 12 5.975 12H15.5C15.775 12 16 11.775 16 11.5C16 11.225 15.775 11 15.5 11H5.975C5.5 11 5.09063 10.6656 4.99375 10.2L4.75 9H14.5781C15.4969 9 16.2969 8.375 16.5187 7.48438L17.9844 1.62188C18.05 1.35313 17.8875 1.08125 17.6219 1.01562C17.3563 0.95 17.0812 1.1125 17.0156 1.37812L15.55 7.24375C15.4375 7.6875 15.0375 8 14.5781 8H4.54375L3.15313 1.2C3.00938 0.5 2.39687 0 1.68438 0H0.5ZM5.25 14.25C5.25 14.0511 5.32902 13.8603 5.46967 13.7197C5.61032 13.579 5.80109 13.5 6 13.5C6.19891 13.5 6.38968 13.579 6.53033 13.7197C6.67098 13.8603 6.75 14.0511 6.75 14.25C6.75 14.4489 6.67098 14.6397 6.53033 14.7803C6.38968 14.921 6.19891 15 6 15C5.80109 15 5.61032 14.921 5.46967 14.7803C5.32902 14.6397 5.25 14.4489 5.25 14.25ZM7.75 14.25C7.75 14.0202 7.70474 13.7926 7.61679 13.5803C7.52884 13.368 7.39994 13.1751 7.23744 13.0126C7.07493 12.8501 6.88202 12.7212 6.6697 12.6332C6.45738 12.5453 6.22981 12.5 6 12.5C5.77019 12.5 5.54262 12.5453 5.3303 12.6332C5.11798 12.7212 4.92507 12.8501 4.76256 13.0126C4.60006 13.1751 4.47116 13.368 4.38321 13.5803C4.29526 13.7926 4.25 14.0202 4.25 14.25C4.25 14.4798 4.29526 14.7074 4.38321 14.9197C4.47116 15.132 4.60006 15.3249 4.76256 15.4874C4.92507 15.6499 5.11798 15.7788 5.3303 15.8668C5.54262 15.9547 5.77019 16 6 16C6.22981 16 6.45738 15.9547 6.6697 15.8668C6.88202 15.7788 7.07493 15.6499 7.23744 15.4874C7.39994 15.3249 7.52884 15.132 7.61679 14.9197C7.70474 14.7074 7.75 14.4798 7.75 14.25ZM14 13.5C14.1989 13.5 14.3897 13.579 14.5303 13.7197C14.671 13.8603 14.75 14.0511 14.75 14.25C14.75 14.4489 14.671 14.6397 14.5303 14.7803C14.3897 14.921 14.1989 15 14 15C13.8011 15 13.6103 14.921 13.4697 14.7803C13.329 14.6397 13.25 14.4489 13.25 14.25C13.25 14.0511 13.329 13.8603 13.4697 13.7197C13.6103 13.579 13.8011 13.5 14 13.5ZM14 16C14.4641 16 14.9092 15.8156 15.2374 15.4874C15.5656 15.1592 15.75 14.7141 15.75 14.25C15.75 13.7859 15.5656 13.3408 15.2374 13.0126C14.9092 12.6844 14.4641 12.5 14 12.5C13.5359 12.5 13.0908 12.6844 12.7626 13.0126C12.4344 13.3408 12.25 13.7859 12.25 14.25C12.25 14.7141 12.4344 15.1592 12.7626 15.4874C13.0908 15.8156 13.5359 16 14 16ZM7.5 4C7.5 4.275 7.725 4.5 8 4.5H9.5V6C9.5 6.275 9.725 6.5 10 6.5C10.275 6.5 10.5 6.275 10.5 6V4.5H12C12.275 4.5 12.5 4.275 12.5 4C12.5 3.725 12.275 3.5 12 3.5H10.5V2C10.5 1.725 10.275 1.5 10 1.5C9.725 1.5 9.5 1.725 9.5 2V3.5H8C7.725 3.5 7.5 3.725 7.5 4Z" fill="white"/>
</svg>
